
<svg width="370" height="60" viewBox="0 0 370 60" fill="none" xmlns="http://www.w3.org/2000/svg">
<path d="M171.982 8.45605H176.678L188.656 38.2635L200.609 8.45605H205.33L190.464 45.0186H186.798L171.982 8.45605ZM170.45 8.45605H174.593L175.271 30.7552V45.0186H170.45V8.45605ZM202.693 8.45605H206.837V45.0186H202.015V30.7552L202.693 8.45605Z" fill="#004438"/>
<path d="M230.668 40.3729V26.3857C230.668 25.3143 230.45 24.3852 230.015 23.5984C229.596 22.7948 228.96 22.1754 228.106 21.7401C227.252 21.3048 226.198 21.0872 224.942 21.0872C223.77 21.0872 222.741 21.2881 221.853 21.6899C220.983 22.0917 220.297 22.619 219.794 23.2719C219.309 23.9248 219.066 24.6279 219.066 25.3813H214.42C214.42 24.4103 214.672 23.4477 215.174 22.4934C215.676 21.5392 216.396 20.677 217.333 19.9069C218.288 19.1201 219.426 18.5007 220.749 18.0487C222.088 17.5799 223.578 17.3456 225.218 17.3456C227.194 17.3456 228.935 17.6804 230.442 18.35C231.965 19.0197 233.154 20.0325 234.007 21.3885C234.878 22.7278 235.313 24.4103 235.313 26.436V39.0922C235.313 39.9962 235.389 40.9588 235.539 41.98C235.707 43.0013 235.949 43.8802 236.268 44.6168V45.0186H231.421C231.187 44.4828 231.002 43.7713 230.869 42.8841C230.735 41.98 230.668 41.143 230.668 40.3729ZM231.471 28.5453L231.521 31.8098H226.826C225.503 31.8098 224.323 31.9187 223.285 32.1363C222.247 32.3372 221.376 32.6469 220.673 33.0654C219.97 33.484 219.434 34.0113 219.066 34.6475C218.698 35.2669 218.514 35.9951 218.514 36.8322C218.514 37.686 218.706 38.4644 219.091 39.1675C219.476 39.8707 220.054 40.4315 220.824 40.85C221.611 41.2518 222.573 41.4527 223.712 41.4527C225.135 41.4527 226.39 41.1514 227.478 40.5487C228.567 39.946 229.429 39.2094 230.065 38.3389C230.718 37.4683 231.069 36.6229 231.12 35.8026L233.103 38.0375C232.986 38.7407 232.668 39.5191 232.149 40.3729C231.63 41.2267 230.936 42.047 230.065 42.8338C229.211 43.6039 228.19 44.2485 227.001 44.7674C225.829 45.2697 224.507 45.5208 223.034 45.5208C221.192 45.5208 219.577 45.1609 218.187 44.441C216.814 43.7211 215.743 42.7585 214.973 41.5532C214.22 40.3311 213.843 38.9667 213.843 37.46C213.843 36.0035 214.127 34.7228 214.697 33.6179C215.266 32.4962 216.086 31.5671 217.158 30.8305C218.229 30.0771 219.518 29.508 221.025 29.1229C222.531 28.7379 224.214 28.5453 226.072 28.5453H231.471Z" fill="#004438"/>
<path d="M247.266 23.6486V45.0186H242.621V17.8478H247.015L247.266 23.6486ZM246.162 30.4036L244.228 30.3283C244.245 28.47 244.521 26.754 245.057 25.1804C245.592 23.59 246.346 22.2088 247.317 21.037C248.288 19.8651 249.443 18.9611 250.782 18.3249C252.138 17.672 253.636 17.3456 255.277 17.3456C256.616 17.3456 257.822 17.5297 258.893 17.898C259.965 18.2496 260.877 18.8188 261.63 19.6056C262.4 20.3924 262.986 21.4136 263.388 22.6692C263.79 23.9081 263.991 25.4231 263.991 27.2144V45.0186H259.32V27.1642C259.32 25.7412 259.111 24.6028 258.692 23.749C258.274 22.8785 257.663 22.2507 256.859 21.8657C256.055 21.4639 255.068 21.263 253.896 21.263C252.741 21.263 251.686 21.5057 250.732 21.9912C249.794 22.4767 248.982 23.1463 248.296 24.0001C247.626 24.8539 247.099 25.8333 246.714 26.9382C246.346 28.0264 246.162 29.1815 246.162 30.4036Z" fill="#004438"/>
<path d="M287.068 40.3729V26.3857C287.068 25.3143 286.851 24.3852 286.415 23.5984C285.997 22.7948 285.361 22.1754 284.507 21.7401C283.653 21.3048 282.598 21.0872 281.343 21.0872C280.171 21.0872 279.141 21.2881 278.254 21.6899C277.384 22.0917 276.697 22.619 276.195 23.2719C275.71 23.9248 275.467 24.6279 275.467 25.3813H270.821C270.821 24.4103 271.072 23.4477 271.574 22.4934C272.077 21.5392 272.797 20.677 273.734 19.9069C274.688 19.1201 275.827 18.5007 277.149 18.0487C278.489 17.5799 279.978 17.3456 281.619 17.3456C283.595 17.3456 285.336 17.6804 286.842 18.35C288.366 19.0197 289.554 20.0325 290.408 21.3885C291.279 22.7278 291.714 24.4103 291.714 26.436V39.0922C291.714 39.9962 291.789 40.9588 291.94 41.98C292.107 43.0013 292.35 43.8802 292.668 44.6168V45.0186H287.822C287.587 44.4828 287.403 43.7713 287.269 42.8841C287.135 41.98 287.068 41.143 287.068 40.3729ZM287.872 28.5453L287.922 31.8098H283.226C281.904 31.8098 280.723 31.9187 279.686 32.1363C278.648 32.3372 277.777 32.6469 277.074 33.0654C276.371 33.484 275.835 34.0113 275.467 34.6475C275.098 35.2669 274.914 35.9951 274.914 36.8322C274.914 37.686 275.107 38.4644 275.492 39.1675C275.877 39.8707 276.454 40.4315 277.225 40.85C278.011 41.2518 278.974 41.4527 280.112 41.4527C281.535 41.4527 282.791 41.1514 283.879 40.5487C284.967 39.946 285.829 39.2094 286.466 38.3389C287.119 37.4683 287.47 36.6229 287.52 35.8026L289.504 38.0375C289.387 38.7407 289.069 39.5191 288.55 40.3729C288.031 41.2267 287.336 42.047 286.466 42.8338C285.612 43.6039 284.591 44.2485 283.402 44.7674C282.23 45.2697 280.908 45.5208 279.434 45.5208C277.593 45.5208 275.977 45.1609 274.588 44.441C273.215 43.7211 272.144 42.7585 271.374 41.5532C270.62 40.3311 270.244 38.9667 270.244 37.46C270.244 36.0035 270.528 34.7228 271.097 33.6179C271.667 32.4962 272.487 31.5671 273.558 30.8305C274.63 30.0771 275.919 29.508 277.425 29.1229C278.932 28.7379 280.615 28.5453 282.473 28.5453H287.872Z" fill="#004438"/>
<path d="M316.625 17.8478H320.843V44.441C320.843 46.835 320.358 48.8774 319.387 50.5682C318.416 52.2591 317.06 53.5398 315.319 54.4103C313.595 55.2976 311.602 55.7412 309.342 55.7412C308.405 55.7412 307.3 55.5905 306.028 55.2892C304.772 55.0046 303.533 54.5107 302.311 53.8076C301.106 53.1212 300.093 52.1921 299.273 51.0202L301.708 48.2579C302.847 49.6307 304.035 50.585 305.274 51.1207C306.53 51.6564 307.769 51.9242 308.991 51.9242C310.464 51.9242 311.736 51.648 312.808 51.0956C313.879 50.5431 314.708 49.7228 315.294 48.6346C315.896 47.5632 316.198 46.2407 316.198 44.667V23.8244L316.625 17.8478ZM297.917 31.7345V31.2072C297.917 29.1313 298.159 27.2479 298.645 25.5571C299.147 23.8495 299.859 22.3846 300.779 21.1625C301.717 19.9404 302.847 19.0029 304.169 18.35C305.492 17.6804 306.982 17.3456 308.639 17.3456C310.347 17.3456 311.837 17.6469 313.109 18.2496C314.398 18.8355 315.486 19.6977 316.374 20.8361C317.278 21.9577 317.989 23.3138 318.508 24.9042C319.027 26.4946 319.387 28.2942 319.588 30.3032V32.6134C319.404 34.6056 319.044 36.3969 318.508 37.9873C317.989 39.5777 317.278 40.9337 316.374 42.0554C315.486 43.177 314.398 44.0392 313.109 44.6419C311.82 45.2278 310.313 45.5208 308.589 45.5208C306.965 45.5208 305.492 45.1776 304.169 44.4912C302.864 43.8048 301.742 42.8422 300.804 41.6034C299.867 40.3645 299.147 38.9081 298.645 37.234C298.159 35.5431 297.917 33.71 297.917 31.7345ZM302.562 31.2072V31.7345C302.562 33.0905 302.696 34.3629 302.964 35.5515C303.249 36.7401 303.675 37.7864 304.245 38.6904C304.831 39.5944 305.576 40.3059 306.48 40.8249C307.384 41.3271 308.463 41.5783 309.719 41.5783C311.259 41.5783 312.531 41.2518 313.536 40.5989C314.54 39.946 315.336 39.0838 315.922 38.0124C316.524 36.941 316.993 35.7775 317.328 34.5219V28.47C317.144 27.5492 316.859 26.662 316.474 25.8082C316.106 24.9376 315.62 24.1676 315.018 23.4979C314.432 22.8115 313.703 22.2674 312.833 21.8657C311.962 21.4639 310.941 21.263 309.769 21.263C308.497 21.263 307.4 21.5308 306.48 22.0665C305.576 22.5855 304.831 23.3054 304.245 24.2261C303.675 25.1302 303.249 26.1848 302.964 27.3902C302.696 28.5788 302.562 29.8511 302.562 31.2072Z" fill="#004438"/>
<path d="M339.175 45.5208C337.283 45.5208 335.567 45.2027 334.027 44.5665C332.504 43.9136 331.189 43.0013 330.085 41.8294C328.996 40.6575 328.159 39.268 327.573 37.6609C326.987 36.0537 326.694 34.2959 326.694 32.3874V31.3327C326.694 29.1229 327.021 27.1558 327.674 25.4315C328.327 23.6904 329.214 22.2172 330.336 21.0119C331.457 19.8065 332.73 18.8941 334.153 18.2747C335.576 17.6553 337.049 17.3456 338.572 17.3456C340.514 17.3456 342.188 17.6804 343.595 18.35C345.018 19.0197 346.181 19.9572 347.085 21.1625C347.989 22.3511 348.659 23.7574 349.094 25.3813C349.529 26.9884 349.747 28.7462 349.747 30.6547V32.739H329.457V28.9471H345.101V28.5956C345.034 27.3902 344.783 26.2183 344.348 25.0799C343.929 23.9415 343.26 23.004 342.339 22.2674C341.418 21.5308 340.163 21.1625 338.572 21.1625C337.518 21.1625 336.547 21.3885 335.659 21.8405C334.772 22.2758 334.01 22.9287 333.374 23.7992C332.738 24.6698 332.244 25.7328 331.893 26.9884C331.541 28.244 331.365 29.6921 331.365 31.3327V32.3874C331.365 33.6765 331.541 34.8902 331.893 36.0286C332.261 37.1502 332.788 38.138 333.475 38.9918C334.178 39.8456 335.023 40.5152 336.011 41.0007C337.015 41.4862 338.154 41.7289 339.426 41.7289C341.067 41.7289 342.456 41.3941 343.595 40.7245C344.733 40.0548 345.729 39.1592 346.583 38.0375L349.395 40.2725C348.809 41.1597 348.064 42.0052 347.16 42.8087C346.256 43.6123 345.143 44.2652 343.821 44.7674C342.515 45.2697 340.966 45.5208 339.175 45.5208Z" fill="#004438"/>
<path d="M359.817 22.1168V45.0186H355.171V17.8478H359.691L359.817 22.1168ZM368.304 17.6971L368.279 22.0163C367.894 21.9326 367.526 21.8824 367.174 21.8657C366.84 21.8322 366.454 21.8154 366.019 21.8154C364.948 21.8154 364.002 21.9828 363.182 22.3177C362.361 22.6525 361.667 23.1212 361.097 23.7239C360.528 24.3266 360.076 25.0465 359.741 25.8835C359.423 26.7038 359.214 27.6078 359.114 28.5956L357.808 29.3489C357.808 27.7083 357.967 26.1681 358.285 24.7284C358.62 23.2886 359.13 22.0163 359.817 20.9114C360.503 19.7898 361.374 18.9192 362.428 18.2998C363.5 17.6636 364.772 17.3456 366.245 17.3456C366.58 17.3456 366.965 17.3874 367.4 17.4711C367.836 17.5381 368.137 17.6134 368.304 17.6971Z" fill="#004438"/>
<path d="M93.1867 8.45605V45.0186H85.6784V8.45605H93.1867Z" fill="#004438"/>
<path d="M114.481 31.9856H105.165V26.1095H114.481C115.921 26.1095 117.093 25.8751 117.997 25.4064C118.901 24.9209 119.562 24.2513 119.981 23.3975C120.399 22.5437 120.609 21.5811 120.609 20.5096C120.609 19.4215 120.399 18.4086 119.981 17.4711C119.562 16.5336 118.901 15.7803 117.997 15.2111C117.093 14.6419 115.921 14.3573 114.481 14.3573H107.777V45.0186H100.243V8.45605H114.481C117.344 8.45605 119.797 8.97503 121.839 10.013C123.898 11.0342 125.472 12.4488 126.56 14.2568C127.648 16.0649 128.192 18.1324 128.192 20.4594C128.192 22.8199 127.648 24.8623 126.56 26.5866C125.472 28.311 123.898 29.6419 121.839 30.5794C119.797 31.5169 117.344 31.9856 114.481 31.9856Z" fill="#004438"/>
<path d="M154.585 32.8896H162.093C161.942 35.3506 161.264 37.5353 160.059 39.4438C158.87 41.3523 157.205 42.8422 155.062 43.9136C152.936 44.9851 150.374 45.5208 147.378 45.5208C145.034 45.5208 142.933 45.119 141.075 44.3154C139.216 43.4951 137.626 42.3232 136.303 40.7998C134.998 39.2764 134.001 37.4348 133.315 35.2752C132.629 33.1157 132.286 30.6966 132.286 28.018V25.4817C132.286 22.8032 132.637 20.3841 133.34 18.2245C134.06 16.0481 135.081 14.1982 136.404 12.6748C137.743 11.1514 139.342 9.97949 141.2 9.15918C143.058 8.33887 145.134 7.92871 147.428 7.92871C150.475 7.92871 153.044 8.48117 155.137 9.58608C157.246 10.691 158.879 12.2144 160.034 14.1564C161.206 16.0984 161.909 18.3082 162.143 20.7859H154.61C154.526 19.3126 154.233 18.0654 153.731 17.0442C153.229 16.0063 152.467 15.2278 151.446 14.7088C150.441 14.1731 149.102 13.9053 147.428 13.9053C146.172 13.9053 145.076 14.1396 144.138 14.6084C143.201 15.0771 142.414 15.7886 141.778 16.7429C141.142 17.6971 140.664 18.9025 140.346 20.359C140.045 21.7987 139.894 23.4895 139.894 25.4315V28.018C139.894 29.9097 140.037 31.5755 140.321 33.0152C140.606 34.4382 141.041 35.6436 141.627 36.6313C142.23 37.6023 143 38.3389 143.937 38.8411C144.892 39.3266 146.038 39.5693 147.378 39.5693C148.951 39.5693 150.249 39.3182 151.27 38.816C152.291 38.3138 153.07 37.5688 153.605 36.5811C154.158 35.5933 154.484 34.3629 154.585 32.8896Z" fill="#004438"/>
<g clip-path="url(#clip0_8563_993)">
<path d="M62.1706 58.257H61.5786V60H61.3063V58.257H60.7143V58H62.1706V58.257ZM64.0739 58.4504L63.5073 60H63.314L62.7482 58.4241V60H62.4768V58H62.8161L63.4123 59.6014L64.0086 58H64.3436V60H64.0756V58.4504H64.0739Z" fill="#80BC00"/>
<path d="M64.2421 0H28.8429C18.4361 0 12.1528 6.97398 12.1528 6.97398L0.714294 18.4189H36.1043C46.5877 18.4189 52.8052 11.445 52.8052 11.445L64.2421 0Z" fill="#80BC00"/>
<path d="M64.2422 41.5811H28.8429C18.4346 41.5811 12.1513 48.555 12.1513 48.555L0.714294 60H36.1043C46.5877 60 52.8052 53.026 52.8052 53.026L64.2437 41.5811H64.2422Z" fill="#80BC00"/>
<path d="M64.2422 39.2073H28.8429C18.4346 39.2073 12.1513 32.2333 12.1513 32.2333L0.714294 20.7883H36.1043C46.5877 20.7883 52.8052 27.7623 52.8052 27.7623L64.2437 39.2073H64.2422Z" fill="#80BC00"/>
</g>
<defs>
<clipPath id="clip0_8563_993">
<rect width="63.5294" height="60" fill="white" transform="translate(0.714294)"/>
</clipPath>
</defs>
</svg>
